<?xml version="1.0" encoding="UTF-8" standalone="no"?><svg xmlns="http://www.w3.org/2000/svg" xmlns:xlink="http://www.w3.org/1999/xlink" contentScriptType="application/ecmascript" contentStyleType="text/css" height="358px" preserveAspectRatio="none" style="width:366px;height:358px;" version="1.1" viewBox="0 0 366 358" width="366px" zoomAndPan="magnify"><defs><filter height="300%" id="f13ph7y2xidxeb" width="300%" x="-1" y="-1"><feGaussianBlur result="blurOut" stdDeviation="2.0"/><feColorMatrix in="blurOut" result="blurOut2" type="matrix" values="0 0 0 0 0 0 0 0 0 0 0 0 0 0 0 0 0 0 .4 0"/><feOffset dx="4.0" dy="4.0" in="blurOut2" result="blurOut3"/><feBlend in="SourceGraphic" in2="blurOut3" mode="normal"/></filter></defs><g><line style="stroke: #A80036; stroke-width: 1.0; stroke-dasharray: 5.0,5.0;" x1="27" x2="27" y1="89.1201" y2="267.8921"/><line style="stroke: #A80036; stroke-width: 1.0; stroke-dasharray: 5.0,5.0;" x1="122" x2="122" y1="89.1201" y2="267.8921"/><line style="stroke: #A80036; stroke-width: 1.0; stroke-dasharray: 5.0,5.0;" x1="176" x2="176" y1="89.1201" y2="267.8921"/><line style="stroke: #A80036; stroke-width: 1.0; stroke-dasharray: 5.0,5.0;" x1="225" x2="225" y1="89.1201" y2="267.8921"/><line style="stroke: #A80036; stroke-width: 1.0; stroke-dasharray: 5.0,5.0;" x1="274" x2="274" y1="89.1201" y2="267.8921"/><line style="stroke: #A80036; stroke-width: 1.0; stroke-dasharray: 5.0,5.0;" x1="331" x2="331" y1="89.1201" y2="267.8921"/><text fill="#000000" font-family="sans-serif" font-size="14" lengthAdjust="spacingAndGlyphs" textLength="33" x="8" y="86.0439">Foo1</text><ellipse cx="27.5" cy="13" fill="#FEFECE" filter="url(#f13ph7y2xidxeb)" rx="8" ry="8" style="stroke: #A80036; stroke-width: 2.0;"/><path d="M27.5,21 L27.5,48 M14.5,29 L40.5,29 M27.5,48 L14.5,63 M27.5,48 L40.5,63 " fill="none" filter="url(#f13ph7y2xidxeb)" style="stroke: #A80036; stroke-width: 2.0;"/><text fill="#000000" font-family="sans-serif" font-size="14" lengthAdjust="spacingAndGlyphs" textLength="33" x="8" y="282.936">Foo1</text><ellipse cx="27.5" cy="296.0122" fill="#FEFECE" filter="url(#f13ph7y2xidxeb)" rx="8" ry="8" style="stroke: #A80036; stroke-width: 2.0;"/><path d="M27.5,304.0122 L27.5,331.0122 M14.5,312.0122 L40.5,312.0122 M27.5,331.0122 L14.5,346.0122 M27.5,331.0122 L40.5,346.0122 " fill="none" filter="url(#f13ph7y2xidxeb)" style="stroke: #A80036; stroke-width: 2.0;"/><text fill="#000000" font-family="sans-serif" font-size="14" lengthAdjust="spacingAndGlyphs" textLength="33" x="103" y="86.0439">Foo2</text><path d="M102,42 L102,66 M102,54 L119,54 " fill="none" filter="url(#f13ph7y2xidxeb)" style="stroke: #A80036; stroke-width: 2.0;"/><ellipse cx="131" cy="54" fill="#FEFECE" filter="url(#f13ph7y2xidxeb)" rx="12" ry="12" style="stroke: #A80036; stroke-width: 2.0;"/><text fill="#000000" font-family="sans-serif" font-size="14" lengthAdjust="spacingAndGlyphs" textLength="33" x="103" y="282.936">Foo2</text><path d="M102,290.0122 L102,314.0122 M102,302.0122 L119,302.0122 " fill="none" filter="url(#f13ph7y2xidxeb)" style="stroke: #A80036; stroke-width: 2.0;"/><ellipse cx="131" cy="302.0122" fill="#FEFECE" filter="url(#f13ph7y2xidxeb)" rx="12" ry="12" style="stroke: #A80036; stroke-width: 2.0;"/><text fill="#000000" font-family="sans-serif" font-size="14" lengthAdjust="spacingAndGlyphs" textLength="33" x="157" y="86.0439">Foo3</text><ellipse cx="176.5" cy="54" fill="#FEFECE" filter="url(#f13ph7y2xidxeb)" rx="12" ry="12" style="stroke: #A80036; stroke-width: 2.0;"/><polygon fill="#A80036" points="172.5,42,178.5,37,176.5,42,178.5,47,172.5,42" style="stroke: #A80036; stroke-width: 1.0;"/><text fill="#000000" font-family="sans-serif" font-size="14" lengthAdjust="spacingAndGlyphs" textLength="33" x="157" y="282.936">Foo3</text><ellipse cx="176.5" cy="302.0122" fill="#FEFECE" filter="url(#f13ph7y2xidxeb)" rx="12" ry="12" style="stroke: #A80036; stroke-width: 2.0;"/><polygon fill="#A80036" points="172.5,290.0122,178.5,285.0122,176.5,290.0122,178.5,295.0122,172.5,290.0122" style="stroke: #A80036; stroke-width: 1.0;"/><text fill="#000000" font-family="sans-serif" font-size="14" lengthAdjust="spacingAndGlyphs" textLength="33" x="206" y="86.0439">Foo4</text><ellipse cx="225.5" cy="54" fill="#FEFECE" filter="url(#f13ph7y2xidxeb)" rx="12" ry="12" style="stroke: #A80036; stroke-width: 2.0;"/><line style="stroke: #A80036; stroke-width: 2.0;" x1="213.5" x2="237.5" y1="68" y2="68"/><text fill="#000000" font-family="sans-serif" font-size="14" lengthAdjust="spacingAndGlyphs" textLength="33" x="206" y="282.936">Foo4</text><ellipse cx="225.5" cy="302.0122" fill="#FEFECE" filter="url(#f13ph7y2xidxeb)" rx="12" ry="12" style="stroke: #A80036; stroke-width: 2.0;"/><line style="stroke: #A80036; stroke-width: 2.0;" x1="213.5" x2="237.5" y1="316.0122" y2="316.0122"/><text fill="#000000" font-family="sans-serif" font-size="14" lengthAdjust="spacingAndGlyphs" textLength="33" x="255" y="86.0439">Foo5</text><path d="M256.5,34 C256.5,24 274.5,24 274.5,24 C274.5,24 292.5,24 292.5,34 L292.5,60 C292.5,70 274.5,70 274.5,70 C274.5,70 256.5,70 256.5,60 L256.5,34 " fill="#FEFECE" filter="url(#f13ph7y2xidxeb)" style="stroke: #000000; stroke-width: 1.5;"/><path d="M256.5,34 C256.5,44 274.5,44 274.5,44 C274.5,44 292.5,44 292.5,34 " fill="none" style="stroke: #000000; stroke-width: 1.5;"/><text fill="#000000" font-family="sans-serif" font-size="14" lengthAdjust="spacingAndGlyphs" textLength="33" x="255" y="282.936">Foo5</text><path d="M256.5,296.0122 C256.5,286.0122 274.5,286.0122 274.5,286.0122 C274.5,286.0122 292.5,286.0122 292.5,296.0122 L292.5,322.0122 C292.5,332.0122 274.5,332.0122 274.5,332.0122 C274.5,332.0122 256.5,332.0122 256.5,322.0122 L256.5,296.0122 " fill="#FEFECE" filter="url(#f13ph7y2xidxeb)" style="stroke: #000000; stroke-width: 1.5;"/><path d="M256.5,296.0122 C256.5,306.0122 274.5,306.0122 274.5,306.0122 C274.5,306.0122 292.5,306.0122 292.5,296.0122 " fill="none" style="stroke: #000000; stroke-width: 1.5;"/><rect fill="#FEFECE" filter="url(#f13ph7y2xidxeb)" height="33.1201" style="stroke: #A80036; stroke-width: 1.5;" width="47" x="308" y="47"/><rect fill="#FEFECE" filter="url(#f13ph7y2xidxeb)" height="33.1201" style="stroke: #A80036; stroke-width: 1.5;" width="47" x="304" y="51"/><text fill="#000000" font-family="sans-serif" font-size="14" lengthAdjust="spacingAndGlyphs" textLength="33" x="311" y="74.0439">Foo6</text><rect fill="#FEFECE" filter="url(#f13ph7y2xidxeb)" height="33.1201" style="stroke: #A80036; stroke-width: 1.5;" width="47" x="308" y="266.8921"/><rect fill="#FEFECE" filter="url(#f13ph7y2xidxeb)" height="33.1201" style="stroke: #A80036; stroke-width: 1.5;" width="47" x="304" y="270.8921"/><text fill="#000000" font-family="sans-serif" font-size="14" lengthAdjust="spacingAndGlyphs" textLength="33" x="311" y="293.936">Foo6</text><polygon fill="#A80036" points="110.5,118.8745,120.5,122.8745,110.5,126.8745,114.5,122.8745" style="stroke: #A80036; stroke-width: 1.0;"/><line style="stroke: #A80036; stroke-width: 1.0;" x1="27.5" x2="116.5" y1="122.8745" y2="122.8745"/><text fill="#000000" font-family="sans-serif" font-size="13" lengthAdjust="spacingAndGlyphs" textLength="71" x="34.5" y="118.0181">To boundary</text><polygon fill="#A80036" points="164.5,150.6289,174.5,154.6289,164.5,158.6289,168.5,154.6289" style="stroke: #A80036; stroke-width: 1.0;"/><line style="stroke: #A80036; stroke-width: 1.0;" x1="27.5" x2="170.5" y1="154.6289" y2="154.6289"/><text fill="#000000" font-family="sans-serif" font-size="13" lengthAdjust="spacingAndGlyphs" textLength="59" x="34.5" y="149.7725">To Control</text><polygon fill="#A80036" points="213.5,182.3833,223.5,186.3833,213.5,190.3833,217.5,186.3833" style="stroke: #A80036; stroke-width: 1.0;"/><line style="stroke: #A80036; stroke-width: 1.0;" x1="27.5" x2="219.5" y1="186.3833" y2="186.3833"/><text fill="#000000" font-family="sans-serif" font-size="13" lengthAdjust="spacingAndGlyphs" textLength="52" x="34.5" y="181.5269">To Entity</text><polygon fill="#A80036" points="262.5,214.1377,272.5,218.1377,262.5,222.1377,266.5,218.1377" style="stroke: #A80036; stroke-width: 1.0;"/><line style="stroke: #A80036; stroke-width: 1.0;" x1="27.5" x2="268.5" y1="218.1377" y2="218.1377"/><text fill="#000000" font-family="sans-serif" font-size="13" lengthAdjust="spacingAndGlyphs" textLength="73" x="34.5" y="213.2813">To Database</text><polygon fill="#A80036" points="319.5,245.8921,329.5,249.8921,319.5,253.8921,323.5,249.8921" style="stroke: #A80036; stroke-width: 1.0;"/><line style="stroke: #A80036; stroke-width: 1.0;" x1="27.5" x2="325.5" y1="249.8921" y2="249.8921"/><text fill="#000000" font-family="sans-serif" font-size="13" lengthAdjust="spacingAndGlyphs" textLength="80" x="34.5" y="245.0356">To collections</text><!--
@startuml
actor Foo1
boundary Foo2
control Foo3
entity  Foo4
database Foo5
collections Foo6

Foo1 -> Foo2 : To boundary
Foo1 -> Foo3 : To Control
Foo1 -> Foo4 : To Entity
Foo1 -> Foo5 : To Database
Foo1 -> Foo6 : To collections
@enduml

PlantUML version 1.2018.12(Sun Oct 21 18:15:15 CST 2018)
(GPL source distribution)
Java Runtime: Java(TM) SE Runtime Environment
JVM: Java HotSpot(TM) 64-Bit Server VM
Java Version: 9.0.4+11
Operating System: Windows 10
OS Version: 10.0
Default Encoding: GBK
Language: en
Country: US
--></g></svg>